<svg xmlns="http://www.w3.org/2000/svg" viewBox="0 0 900 520">
  <defs>
    <linearGradient id="grad1" x1="0%" y1="0%" x2="100%" y2="100%">
      <stop offset="0%" stop-color="#5FD1FF" />
      <stop offset="100%" stop-color="#8CFF7D" />
    </linearGradient>
    <linearGradient id="grad2" x1="0%" y1="0%" x2="100%" y2="100%">
      <stop offset="0%" stop-color="#0F1C34" />
      <stop offset="100%" stop-color="#152847" />
    </linearGradient>
    <radialGradient id="glow" cx="50%" cy="50%" r="70%">
      <stop offset="0%" stop-color="#98f8ff" stop-opacity="0.45" />
      <stop offset="100%" stop-color="#0b1320" stop-opacity="0" />
    </radialGradient>
  </defs>
  <rect width="900" height="520" rx="40" fill="url(#grad2)" />
  <circle cx="200" cy="120" r="80" fill="#0F1F35" opacity="0.84" />
  <circle cx="720" cy="120" r="110" fill="url(#grad1)" opacity="0.4" />
  <circle cx="660" cy="380" r="160" fill="url(#glow)" />
  <g opacity="0.95" filter="drop-shadow(0 18px 55px rgba(0,0,0,0.5))">
    <rect x="160" y="180" width="560" height="220" rx="40" fill="#0e162b" />
    <path d="M270 260 C310 220 380 220 420 260 S520 320 550 280" fill="none" stroke="#5FD1FF" stroke-width="4" stroke-linecap="round" />
    <path d="M240 315 C280 275 340 275 380 315 S450 360 490 330" fill="none" stroke="#8CFF7D" stroke-width="4" stroke-linecap="round" />
    <circle cx="395" cy="260" r="6" fill="#fff" />
    <circle cx="470" cy="300" r="5" fill="#ABF4FF" />
    <circle cx="320" cy="340" r="5" fill="#8CFF7D" />
    <path d="M350 220 L350 340 L470 340" fill="none" stroke="#56D3FF" stroke-width="3" stroke-linecap="round" stroke-linejoin="round" />
  </g>
  <g transform="translate(250 130)">
    <text x="0" y="0" fill="#fff" font-family="Inter, sans-serif" font-weight="700" font-size="70">AI</text>
    <text x="0" y="90" fill="#98F8FF" font-family="Inter, sans-serif" font-weight="700" font-size="28">News Pulse</text>
    <text x="0" y="140" fill="#A3B9D9" font-family="Inter, sans-serif" font-size="18">Curated updates from the latest AI headlines.</text>
  </g>
</svg>
